# xmcd
#
# Track frame offsets: 
#        150
#        28669
#        76683
#        123939
#
# Disc length: 2332 seconds
#
# Revision: 0
# Processed by: cddbd v1.5.2PL0 Copyright (c) Steve Scherf et al.
# Submitted via: ExactAudioCopy v0.99pb3
#
DISCID=22091a04
DTITLE=Raventale - Planetarium [DigiCD]
DYEAR=2017
DGENRE=Atmospheric Black Metal
TTITLE0=Gemini, Behind Two Black Moons
TTITLE1=Bringer of Celestial Anomalies
TTITLE2=At the Halls of the Pleiades
TTITLE3=New World Planetarium
EXTD=
EXTT0=
EXTT1=
EXTT2=
EXTT3=
PLAYORDER=
